<svg width="10" height="10" viewBox="0 0 10 10" fill="none" xmlns="http://www.w3.org/2000/svg">
<g clip-path="url(#clip0_2084_821)">
<path d="M8.75 5.4165V6.6665C8.75 7.10853 8.5744 7.53245 8.26184 7.84502C7.94928 8.15758 7.52536 8.33317 7.08333 8.33317H2.91667C2.47464 8.33317 2.05072 8.15758 1.73816 7.84502C1.42559 7.53245 1.25 7.10853 1.25 6.6665V5.6665C1.25 5.6002 1.27634 5.53661 1.32322 5.48973C1.37011 5.44284 1.4337 5.4165 1.5 5.4165H8.75Z" fill="#868686" stroke="#868686" stroke-width="1.5" stroke-linecap="round" stroke-linejoin="round"/>
<path d="M6.66667 8.33333L7.08333 9.16667M3.33333 8.33333L2.91667 9.16667M8.75 5.41667V2.91667C8.75 2.47464 8.57441 2.05072 8.26184 1.73816C7.94928 1.42559 7.52536 1.25 7.08333 1.25H5" stroke="#868686" stroke-width="1.5" stroke-linecap="round" stroke-linejoin="round"/>
<path d="M6.41667 3.33333H3.58333C3.44542 3.33333 3.335 3.22167 3.35 3.08417C3.41083 2.53125 3.69292 1.25 5 1.25C6.30708 1.25 6.58917 2.53125 6.65 3.08417C6.665 3.22167 6.55458 3.33333 6.41667 3.33333Z" fill="#868686" stroke="#868686" stroke-width="1.5" stroke-linecap="round" stroke-linejoin="round"/>
</g>
<defs>
<clipPath id="clip0_2084_821">
<rect width="10" height="10" fill="white"/>
</clipPath>
</defs>
</svg>
