<svg width="12" height="12" viewBox="0 0 12 12" fill="none" xmlns="http://www.w3.org/2000/svg">
<path d="M9 5V3.5C9 3.23478 8.89464 2.98043 8.70711 2.79289C8.51957 2.60536 8.26522 2.5 8 2.5H4C3.73478 2.5 3.48043 2.60536 3.29289 2.79289C3.10536 2.98043 3 3.23478 3 3.5V5C2.73478 5 2.48043 5.10536 2.29289 5.29289C2.10536 5.48043 2 5.73478 2 6V8.5H2.665L3 9.5H3.5L3.835 8.5H8.165L8.5 9.5H9L9.335 8.5H10V6C10 5.73478 9.89464 5.48043 9.70711 5.29289C9.51957 5.10536 9.26522 5 9 5ZM5.5 5H4V3.5H5.5M8 5H6.5V3.5H8V5Z" fill="#868686"/>
</svg>
