<svg width="16" height="16" viewBox="0 0 16 16" fill="none" xmlns="http://www.w3.org/2000/svg">
<path d="M8 3.33335C9.07267 3.33335 10.08 3.74269 10.836 4.48669C11.5867 5.22469 12 6.20602 12 7.24669C12 8.28735 11.5867 9.26669 10.8367 10.006L8 12.7954L5.164 10.0047C4.414 9.26669 4.00067 8.28735 4.00067 7.24535C4.00067 6.20335 4.414 5.22402 5.164 4.48469C5.92093 3.74258 6.93997 3.32888 8 3.33335ZM8 2.00002C6.58968 1.99614 5.23466 2.54826 4.22867 3.53669C3.73409 4.01979 3.34108 4.59689 3.07276 5.23407C2.80444 5.87125 2.66621 6.55565 2.66621 7.24702C2.66621 7.93839 2.80444 8.62279 3.07276 9.25997C3.34108 9.89715 3.73409 10.4743 4.22867 10.9574L8 14.666L11.7713 10.956C12.2657 10.4729 12.6585 9.89592 12.9267 9.25886C13.1949 8.6218 13.3331 7.93756 13.3331 7.24635C13.3331 6.55514 13.1949 5.8709 12.9267 5.23385C12.6585 4.59679 12.2657 4.01977 11.7713 3.53669C10.7653 2.54826 9.41032 1.99614 8 2.00002ZM8 5.66602C8.44533 5.66602 8.864 5.83935 9.17867 6.15335C9.33358 6.30814 9.45647 6.49193 9.54031 6.69423C9.62415 6.89653 9.66731 7.11337 9.66731 7.33235C9.66731 7.55134 9.62415 7.76818 9.54031 7.97048C9.45647 8.17278 9.33358 8.35657 9.17867 8.51135C8.86333 8.82602 8.44533 8.99869 8 8.99869C7.55467 8.99869 7.13667 8.82535 6.82133 8.51135C6.66642 8.35657 6.54353 8.17278 6.45969 7.97048C6.37584 7.76818 6.33269 7.55134 6.33269 7.33235C6.33269 7.11337 6.37584 6.89653 6.45969 6.69423C6.54353 6.49193 6.66642 6.30814 6.82133 6.15335C7.13407 5.84106 7.55804 5.66576 8 5.66602ZM8 4.99935C7.61605 4.99912 7.23797 5.0936 6.89927 5.27444C6.56057 5.45528 6.27171 5.71688 6.0583 6.03606C5.84489 6.35524 5.71352 6.72214 5.67583 7.10424C5.63814 7.48634 5.6953 7.87183 5.84223 8.22656C5.98917 8.58128 6.22135 8.89428 6.51819 9.13781C6.81503 9.38133 7.16736 9.54787 7.54396 9.62265C7.92056 9.69744 8.30979 9.67816 8.67716 9.56653C9.04452 9.45489 9.37868 9.25435 9.65 8.98269C10.0873 8.54481 10.333 7.95123 10.333 7.33235C10.333 6.71347 10.0873 6.1199 9.65 5.68202C9.21227 5.24469 8.61876 4.99913 8 4.99935Z" fill="#868686"/>
</svg>
