<svg width="24" height="25" viewBox="0 0 24 25" fill="none" xmlns="http://www.w3.org/2000/svg">
<circle cx="12" cy="12" r="11.5" fill="white" stroke="#8A38F5"/>
<g clip-path="url(#clip0_2084_836)">
<path d="M12 10.7202C14.4853 10.7202 16.5 8.7055 16.5 6.22021C16.5 3.73493 14.4853 1.72021 12 1.72021C9.51472 1.72021 7.5 3.73493 7.5 6.22021C7.5 8.7055 9.51472 10.7202 12 10.7202Z" fill="#5E23DC"/>
<path d="M23.145 21.1304C22.6782 19.0051 21.6079 17.0598 20.0625 15.5279C19.6874 15.1515 19.281 14.8078 18.8475 14.5004C16.8735 13.0197 14.4675 12.2292 12 12.2504C8.98285 12.235 6.08198 13.4131 3.93 15.5279C2.38463 17.0598 1.31429 19.0051 0.847501 21.1304C0.766366 21.5062 0.770749 21.8955 0.860325 22.2693C0.9499 22.6432 1.12238 22.9922 1.365 23.2904C1.61627 23.5951 1.93268 23.8395 2.29093 24.0056C2.64918 24.1718 3.04013 24.2554 3.435 24.2504H20.565C20.961 24.2507 21.352 24.1618 21.7091 23.9904C22.0661 23.8191 22.38 23.5696 22.6275 23.2604C22.8658 22.9657 23.0358 22.6218 23.1252 22.2535C23.2147 21.8852 23.2215 21.5016 23.145 21.1304Z" fill="#5E23DC"/>
</g>
<defs>
<clipPath id="clip0_2084_836">
<rect width="24" height="24" fill="white" transform="translate(0 1)"/>
</clipPath>
</defs>
</svg>
